<?xml version="1.0" encoding="utf-8"?>
<!-- Generator: Adobe Illustrator 25.0.1, SVG Export Plug-In . SVG Version: 6.00 Build 0)  -->
<svg version="1.1" id="图层_1" xmlns="http://www.w3.org/2000/svg" xmlns:xlink="http://www.w3.org/1999/xlink" x="0px" y="0px"
	 viewBox="0 0 256 256" style="enable-background:new 0 0 256 256;" xml:space="preserve">
<style type="text/css">
	.st0{fill:#5EC4E5;}
	.st1{opacity:0.89;fill:#E72320;}
	.st2{fill:#4AB56B;}
	.st3{fill:#F7F8F8;stroke:#000000;stroke-miterlimit:10;}
</style>
<polygon class="st0" points="212.72,181.93 128,204.67 43.28,181.93 43.28,103.9 128,126.65 212.72,103.9 "/>
<polygon class="st1" points="127.94,103.9 127.76,29.5 239.14,68.38 "/>
<path class="st2" d="M43.28,101.97v52.05c9.13-2.14,23.53-6.36,31.24-12.98c11.86-10.16,3.95-27.11,19.2-23.72
	s27.59,11.29,33.84,11.86c6.25,0.56,2.3,3.95,14.16,1.69c11.86-2.26,28.8-6.21,32.75-4.52s9.04,11.86,14.12,12.42
	s4.52,5.65,10.73,2.82c4.11-1.87,8.96,4.66,13.41,5.05v-44.69L128,124.72L43.28,101.97z"/>
<path class="st3" d="M124.57,164.4V31.63c0-0.95,0.77-1.72,1.72-1.72h0c0.95,0,1.72,0.77,1.72,1.72V164.4"/>
<path class="st2" d="M114.07,179.63c10.16-10.16,25.41-8.47,27.67-7.34s5.08,6.21,5.65,7.34c0.56,1.13,5.08,6.78-4.52,9.6
	c-9.6,2.82-16.38,4.52-24.85,3.95c-8.47-0.56-14.12-8.09-9.04-10.82S114.07,179.63,114.07,179.63z"/>
<path class="st2" d="M64.8,151.76c-2.26,1.69-2.26,1.69-2.26,1.69v5.65c0,0,4.47-2.59,4.75-2.92
	C67.57,155.85,64.8,151.76,64.8,151.76z"/>
</svg>
